<svg width="180" height="33" viewBox="0 0 180 33" fill="none" xmlns="http://www.w3.org/2000/svg">
<path fill-rule="evenodd" clip-rule="evenodd" d="M152.755 19.0273C152.523 19.5897 152.429 20.199 152.429 20.8082V22.5891H178.23C178.696 22.5891 179.162 22.4016 179.488 22.0736C179.814 21.7455 180 21.2768 180 20.8082C180 20.3396 179.814 19.8709 179.488 19.5429C179.162 19.2148 178.696 19.0273 178.23 19.0273H152.755ZM141.439 19.0273H145.304V22.5891H141.439C141.532 22.0267 141.578 21.4174 141.578 20.8082C141.578 20.199 141.532 19.5897 141.439 19.0273ZM106.882 19.0273H134.173C134.406 19.5897 134.499 20.199 134.499 20.8082C134.499 21.4174 134.36 22.0267 134.173 22.5891H107.208C106.975 22.0267 106.882 21.4174 106.882 20.8082V19.0273ZM78.1009 19.0273H99.8034V20.8082C99.8034 21.4174 99.8499 22.0267 99.9431 22.5891H78.1475C77.9146 22.0267 77.8215 21.4174 77.8215 20.8082C77.7749 20.1521 77.868 19.5429 78.1009 19.0273ZM70.8357 22.5891H66.7374V19.0273H70.8357C70.7426 19.5897 70.696 20.199 70.696 20.8082C70.696 21.4174 70.7426 21.9798 70.8357 22.5891ZM47.5964 19.0273C47.4101 19.5429 47.3169 20.1052 47.3169 20.7145V22.5891H59.6585V19.0273H47.5964ZM34.5097 19.0273H40.238V22.5891H34.5097C34.6028 22.0267 34.6494 21.4174 34.6494 20.8082C34.6028 20.199 34.6028 19.5897 34.5097 19.0273ZM27.1979 19.0273C27.4308 19.5897 27.5239 20.199 27.5239 20.8082C27.5239 21.4174 27.3842 22.0267 27.1979 22.5891H1.76973C1.30401 22.5891 0.838292 22.4016 0.512289 22.0736C0.186286 21.7455 0 21.2768 0 20.8082C0 20.3396 0.186286 19.8709 0.512289 19.5429C0.838292 19.2148 1.30401 19.0273 1.76973 19.0273H27.1979Z" fill="#9FCB96"/>
<path fill-rule="evenodd" clip-rule="evenodd" d="M10.7581 22.5888H18.163C18.8616 24.4165 20.6313 25.6819 22.6805 25.6819C25.3817 25.6819 27.524 23.4792 27.524 20.8079C27.524 18.0898 25.3351 15.934 22.6805 15.934C20.6313 15.934 18.8616 17.1993 18.163 19.0271H10.7581V0.140588H17.837V9.84159C19.3273 9.18548 20.9573 8.81056 22.6805 8.81056C29.2471 8.81056 34.6029 14.2 34.6029 20.8079C34.6029 27.4158 29.2937 32.7584 22.7271 32.8053H10.7115V22.5888H10.7581ZM59.6585 32.8053H66.7374V8.57623H59.6585V32.8053ZM152.383 20.8079C152.383 18.0898 154.572 15.934 157.226 15.934C159.276 15.934 161.045 17.1993 161.744 19.0271H169.056C168.217 13.2627 163.234 8.81056 157.273 8.81056C155.55 8.81056 153.92 9.18548 152.43 9.84159V8.57623H145.304V32.8053H152.383V20.8079ZM47.2704 32.8053V20.6673C47.2704 17.9492 49.4593 15.7934 52.1139 15.7934H55.6533V8.66997H52.1604C50.4373 8.66997 48.8073 9.04489 47.317 9.701V8.52938H40.2381V32.8053H47.2704ZM162.116 32.8053H169.195V22.5888H162.116V32.8053ZM94.5408 32.8053H82.6184C76.0518 32.8053 70.696 27.4158 70.696 20.8079C70.696 14.2 76.0518 8.81056 82.6184 8.81056C88.6262 8.81056 93.5628 13.2627 94.4011 19.0271H87.1359C86.4373 17.1993 84.6676 15.934 82.6184 15.934C79.9172 15.934 77.7749 18.1366 77.7749 20.8079C77.7749 23.5261 79.9638 25.6819 82.6184 25.6819C84.6676 25.6819 86.4373 24.3696 87.1359 22.5888H94.5408V32.8053ZM106.882 8.7637V0.0937351H99.8034V8.7637H97.2419V15.8871H99.8034V20.7611C99.8034 27.369 105.159 32.7584 111.726 32.7584H115.265V25.635H111.726C109.025 25.635 106.882 23.4323 106.882 20.7611V15.8871H111.726V8.7637H106.882ZM117.827 19.0271C118.665 13.2627 123.648 8.81056 129.609 8.81056C136.176 8.81056 141.532 14.2 141.532 20.8079C141.532 27.4158 136.176 32.8053 129.609 32.8053C123.602 32.8053 118.665 28.3531 117.827 22.5888H125.092C125.79 24.4165 127.56 25.6819 129.609 25.6819C132.311 25.6819 134.453 23.4792 134.453 20.8079C134.453 18.0898 132.264 15.934 129.609 15.934C127.56 15.934 125.79 17.1993 125.092 19.0271H117.827ZM63.198 0C65.154 0 66.7374 1.5934 66.7374 3.56172C66.7374 5.53004 65.154 7.12344 63.198 7.12344C61.242 7.12344 59.6585 5.53004 59.6585 3.56172C59.6585 1.5934 61.242 0 63.198 0Z" fill="white"/>
</svg>
