<svg width="94" height="94" viewBox="0 0 94 94" fill="none" xmlns="http://www.w3.org/2000/svg">
<g clip-path="url(#clip0_1_1143)">
<path d="M31.6116 71.1695L23.4493 79.0638C22.7614 79.7295 22.743 80.8277 23.4087 81.5156C24.0743 82.2045 25.1725 82.2229 25.8605 81.5562L34.0228 73.661C34.7117 72.9953 34.7291 71.8971 34.0634 71.2092C33.3977 70.5213 32.2995 70.5029 31.6116 71.1686V71.1695Z" fill="#A5A5A5"/>
<path d="M58.5099 73.8012C57.8219 73.1356 56.7238 73.154 56.0581 73.8419C55.3924 74.5308 55.4108 75.628 56.0987 76.2937L64.261 84.1889C64.9499 84.8546 66.0471 84.8372 66.7128 84.1483C67.3785 83.4603 67.3601 82.3622 66.6722 81.6965L58.5099 73.8012Z" fill="#A5A5A5"/>
<path d="M45.5288 79.3667C44.5709 79.3667 43.7949 80.1427 43.7949 81.1006V92.2662C43.7949 93.2241 44.5709 94 45.5288 94C46.4867 94 47.2626 93.2241 47.2626 92.2662V81.1006C47.2626 80.1427 46.4867 79.3667 45.5288 79.3667Z" fill="#A5A5A5"/>
<path d="M37.0054 57.4651C37.7649 62.1713 41.9641 65.6932 47.0147 65.6932C52.0654 65.6932 56.2646 62.1713 57.0241 57.4651H37.0054Z" fill="#A5A5A5"/>
<path d="M55.1645 33.0159C54.4495 32.7789 53.9628 32.1171 53.9503 31.3653V25.4738C53.9773 24.1531 52.9285 23.0617 51.6078 23.0356C51.5904 23.0356 51.573 23.0356 51.5546 23.0356H48.7487V0H45.281V23.0356H42.0271C40.6851 23.0288 39.5908 24.1115 39.584 25.4535V31.5172C39.5811 32.2544 39.1167 32.9104 38.422 33.1581C29.2302 36.4188 22.8743 44.585 22.1689 53.9974H71.8617C71.1505 44.585 64.6011 36.1759 55.1645 33.0159Z" fill="#A5A5A5"/>
</g>
<defs>
<clipPath id="clip0_1_1143">
<rect width="94" height="94" fill="white"/>
</clipPath>
</defs>
</svg>
