<svg width="24" height="24" viewBox="0 0 24 24" fill="none" xmlns="http://www.w3.org/2000/svg">
<path fill-rule="evenodd" clip-rule="evenodd" d="M9.75 6C9.75 4.75736 10.7574 3.75 12 3.75C13.2426 3.75 14.25 4.75736 14.25 6V6.25H9.75V6ZM8.25 7.75V9C8.25 9.41421 8.58579 9.75 9 9.75C9.41422 9.75 9.75 9.41421 9.75 9V7.75H14.25V9C14.25 9.41421 14.5858 9.75 15 9.75C15.4142 9.75 15.75 9.41421 15.75 9V7.75H17.3055L18.1901 19.25H5.80991L6.69453 7.75H8.25ZM8.25 6.25V6C8.25 3.92893 9.92893 2.25 12 2.25C14.0711 2.25 15.75 3.92893 15.75 6V6.25H18C18.3919 6.25 18.7177 6.55173 18.7478 6.94248L19.7478 19.9425C19.7638 20.1508 19.6922 20.3563 19.5503 20.5096C19.4084 20.6629 19.2089 20.75 19 20.75H5C4.79109 20.75 4.59165 20.6629 4.44971 20.5096C4.30777 20.3563 4.23619 20.1508 4.25221 19.9425L5.25221 6.94248C5.28227 6.55173 5.6081 6.25 6 6.25H8.25Z" fill="black"/>
</svg>
