<svg width="62" height="18" viewBox="0 0 62 18" fill="none" xmlns="http://www.w3.org/2000/svg">
<path fill-rule="evenodd" clip-rule="evenodd" d="M25.1663 15.4234C25.1663 14.0005 24.0128 12.8469 22.5897 12.8469C21.1667 12.8469 20.0132 14.0005 20.0132 15.4234C20.0132 16.8464 21.1667 18 22.5897 18C24.0128 18 25.1663 16.8464 25.1663 15.4234Z" fill="#F9564F"/>
<path d="M18.0277 2.07961C16.9432 2.07961 16.401 2.66986 16.401 3.85036V4.50925H19.4278V6.56826H16.4628V15.422H13.889V3.80918C13.889 2.6424 14.2322 1.71585 14.9185 1.02951C15.6049 0.343169 16.5795 0 17.8423 0C18.8169 0 19.5856 0.199038 20.1484 0.597114L19.4278 2.53259C19.016 2.2306 18.5493 2.07961 18.0277 2.07961Z" fill="white"/>
<path fill-rule="evenodd" clip-rule="evenodd" d="M11.654 15.422H9.2038V14.0013C8.77827 14.5229 8.24979 14.9141 7.61836 15.1749C7.00065 15.4358 6.31432 15.5662 5.55934 15.5662C4.48866 15.5662 3.52778 15.3328 2.67672 14.8661C1.83939 14.3994 1.1805 13.7405 0.700066 12.8894C0.233355 12.0384 0 11.0501 0 9.92446C0 8.79886 0.233355 7.8174 0.700066 6.98007C1.1805 6.12901 1.83939 5.47012 2.67672 5.00341C3.52778 4.5367 4.48866 4.30334 5.55934 4.30334C6.27314 4.30334 6.92516 4.42689 7.51541 4.67397C8.11939 4.92105 8.64101 5.28481 9.08026 5.76525V4.42689H11.654V15.422ZM5.84761 13.363C6.79475 13.363 7.57718 13.0473 8.19488 12.4159C8.81259 11.7844 9.12144 10.954 9.12144 9.92446C9.12144 8.89495 8.81259 8.06448 8.19488 7.43305C7.57718 6.80162 6.79475 6.4859 5.84761 6.4859C4.90046 6.4859 4.11803 6.80162 3.50033 7.43305C2.89635 8.06448 2.59436 8.89495 2.59436 9.92446C2.59436 10.954 2.89635 11.7844 3.50033 12.4159C4.11803 13.0473 4.90046 13.363 5.84761 13.363Z" fill="white"/>
<path d="M22.5274 3.85036C22.5274 2.66986 23.0696 2.07961 24.154 2.07961C24.6756 2.07961 25.1424 2.2306 25.5542 2.53259L26.2748 0.597114C25.712 0.199038 24.9433 0 23.9687 0C22.7059 0 21.7313 0.343169 21.0449 1.02951C20.3586 1.71585 20.0154 2.6424 20.0154 3.80918V12.3142C20.714 11.7352 21.6109 11.3871 22.5892 11.387V6.56826H25.5542V4.50925H22.5274V3.85036Z" fill="white"/>
<path fill-rule="evenodd" clip-rule="evenodd" d="M36.729 15.422H34.2788V14.0013C33.8532 14.5229 33.3247 14.9141 32.6933 15.1749C32.0756 15.4358 31.3893 15.5662 30.6343 15.5662C29.5636 15.5662 28.6027 15.3328 27.7517 14.8661C26.9143 14.3994 26.2555 13.7405 25.775 12.8894C25.3083 12.0384 25.075 11.0501 25.075 9.92446C25.075 8.79886 25.3083 7.8174 25.775 6.98007C26.2555 6.12901 26.9143 5.47012 27.7517 5.00341C28.6027 4.5367 29.5636 4.30334 30.6343 4.30334C31.3481 4.30334 32.0001 4.42689 32.5904 4.67397C33.1943 4.92105 33.716 5.28481 34.1552 5.76525V4.42689H36.729V15.422ZM30.9226 13.363C31.8697 13.363 32.6521 13.0473 33.2698 12.4159C33.8875 11.7844 34.1964 10.954 34.1964 9.92446C34.1964 8.89495 33.8875 8.06448 33.2698 7.43305C32.6521 6.80162 31.8697 6.4859 30.9226 6.4859C29.9754 6.4859 29.193 6.80162 28.5753 7.43305C27.9713 8.06448 27.6693 8.89495 27.6693 9.92446C27.6693 10.954 27.9713 11.7844 28.5753 12.4159C29.193 13.0473 29.9754 13.363 30.9226 13.363Z" fill="white"/>
<path d="M45.3263 4.30334C43.4595 4.30334 42.1555 4.87987 41.4142 6.03292V4.42689H38.964V15.422H41.5378V10.0892C41.5378 8.99104 41.8192 8.15371 42.382 7.57718C42.9448 6.98693 43.7272 6.6918 44.7292 6.6918C44.9077 6.6918 45.1067 6.71239 45.3263 6.75357V4.30334Z" fill="white"/>
<path d="M52.5543 14.8249C52.2523 15.072 51.8817 15.2573 51.4424 15.3809C51.0169 15.5044 50.5639 15.5662 50.0835 15.5662C48.8755 15.5662 47.9421 15.2504 47.2832 14.619C46.6243 13.9876 46.2949 13.0679 46.2949 11.8599V1.99725H48.8687V4.50925H51.8131V6.56826H48.8687V11.7982C48.8687 12.3335 48.9991 12.7453 49.2599 13.0336C49.5344 13.3081 49.9119 13.4454 50.3923 13.4454C50.9689 13.4454 51.4493 13.2944 51.8336 12.9924L52.3308 14.2565L53.2815 12.3747C53.7757 12.7041 54.366 12.9718 55.0523 13.1777C55.7524 13.3699 56.4387 13.466 57.1113 13.466C58.6487 13.466 59.4174 13.061 59.4174 12.2511C59.4174 11.8668 59.2184 11.5991 58.8203 11.4481C58.436 11.2971 57.8114 11.153 56.9466 11.0157C56.0406 10.8785 55.2994 10.7206 54.7229 10.5422C54.1601 10.3637 53.6659 10.0549 53.2404 9.61561C52.8286 9.16262 52.6227 8.53805 52.6227 7.7419C52.6227 6.69867 53.0551 5.8682 53.9198 5.25049C54.7984 4.61906 55.9789 4.30334 57.4613 4.30334C58.2163 4.30334 58.9713 4.39257 59.7263 4.57102C60.4812 4.73574 61.0989 4.96223 61.5794 5.25049L60.5911 7.20656C59.6576 6.65749 58.6075 6.38295 57.4408 6.38295C56.6858 6.38295 56.1093 6.49963 55.7112 6.73298C55.3268 6.95261 55.1347 7.24774 55.1347 7.61836C55.1347 8.03016 55.3406 8.32529 55.7524 8.50374C56.1779 8.66846 56.8299 8.82632 57.7084 8.97731C58.5869 9.11458 59.3076 9.27244 59.8704 9.45088C60.4332 9.62933 60.9136 9.93132 61.3117 10.3569C61.7235 10.7824 61.9294 11.3864 61.9294 12.1688C61.9294 13.1983 61.4833 14.0219 60.5911 14.6396C59.6988 15.2573 58.484 15.5662 56.9466 15.5662C56.0544 15.5662 55.1827 15.4495 54.3316 15.2161C53.5305 14.9965 52.8815 14.7221 52.3844 14.393L52.5543 14.8249Z" fill="white"/>
</svg>
