<svg width="44" height="15" viewBox="0 0 44 15" fill="none" xmlns="http://www.w3.org/2000/svg">
<g clip-path="url(#clip0_1_1277)">
<path d="M19.0665 14.2977H15.5022L17.7316 0.745361H21.2957L19.0665 14.2977Z" fill="#00579F"/>
<path d="M31.9876 1.07698C31.2846 0.802765 30.1695 0.5 28.7907 0.5C25.2708 0.5 22.7922 2.34533 22.777 4.9836C22.7477 6.93011 24.5516 8.01125 25.9008 8.66028C27.2798 9.32349 27.7485 9.75637 27.7485 10.3475C27.7345 11.2554 26.6342 11.6739 25.608 11.6739C24.185 11.6739 23.4225 11.4582 22.2638 10.9531L21.7944 10.7365L21.2957 13.7787C22.1316 14.1532 23.6718 14.4854 25.2708 14.5C29.0108 14.5 31.4456 12.6832 31.4744 9.87173C31.4887 8.32897 30.5361 7.14684 28.4826 6.18087C27.2359 5.56077 26.4725 5.14265 26.4725 4.50819C26.4871 3.9314 27.1182 3.34062 28.5254 3.34062C29.6842 3.31169 30.5355 3.58552 31.1805 3.85954L31.5029 4.00345L31.9876 1.07698V1.07698Z" fill="#00579F"/>
<path d="M36.7248 9.49661C37.0183 8.71804 38.1478 5.70477 38.1478 5.70477C38.133 5.7337 38.4408 4.91183 38.6168 4.40728L38.8659 5.57504C38.8659 5.57504 39.5408 8.81903 39.6874 9.49661C39.1303 9.49661 37.4288 9.49661 36.7248 9.49661ZM41.1245 0.745361H38.3675C37.5173 0.745361 36.8713 0.990256 36.5045 1.86981L31.2102 14.2975H34.9501C34.9501 14.2975 35.5658 12.6249 35.6982 12.2646C36.1085 12.2646 39.7466 12.2646 40.2745 12.2646C40.3768 12.7404 40.6998 14.2975 40.6998 14.2975H44L41.1245 0.745361V0.745361Z" fill="#00579F"/>
<path d="M12.5253 0.745361L9.03467 9.98678L8.65324 8.11251C8.00789 5.94985 5.98395 3.60017 3.72534 2.43184L6.92264 14.2834H10.6918L16.2943 0.745361H12.5253V0.745361Z" fill="#00579F"/>
<path d="M5.79329 0.745361H0.0586675L0 1.01919C4.47337 2.14383 7.43599 4.85472 8.6532 8.11309L7.40656 1.88456C7.20132 1.019 6.57059 0.773913 5.79329 0.745361Z" fill="#FAA61A"/>
</g>
<defs>
<clipPath id="clip0_1_1277">
<rect width="44" height="14" fill="white" transform="translate(0 0.5)"/>
</clipPath>
</defs>
</svg>
