<svg width="140" height="26" viewBox="0 0 140 26" fill="none" xmlns="http://www.w3.org/2000/svg">
<path fill-rule="evenodd" clip-rule="evenodd" d="M118.81 14.7988C118.629 15.2362 118.556 15.7101 118.556 16.1839V17.5691H138.624C138.986 17.5691 139.348 17.4233 139.602 17.1681C139.855 16.9129 140 16.5484 140 16.1839C140 15.8194 139.855 15.4549 139.602 15.1998C139.348 14.9446 138.986 14.7988 138.624 14.7988H118.81ZM110.008 14.7988H113.014V17.5691H110.008C110.08 17.1317 110.116 16.6578 110.116 16.1839C110.116 15.7101 110.08 15.2362 110.008 14.7988ZM83.1307 14.7988H104.357C104.538 15.2362 104.611 15.7101 104.611 16.1839C104.611 16.6578 104.502 17.1317 104.357 17.5691H83.3842C83.2031 17.1317 83.1307 16.6578 83.1307 16.1839V14.7988ZM60.7452 14.7988H77.6248V16.1839C77.6248 16.6578 77.6611 17.1317 77.7335 17.5691H60.7814C60.6003 17.1317 60.5278 16.6578 60.5278 16.1839C60.4916 15.6736 60.564 15.1998 60.7452 14.7988ZM55.0944 17.5691H51.9069V14.7988H55.0944C55.022 15.2362 54.9858 15.7101 54.9858 16.1839C54.9858 16.6578 55.022 17.0952 55.0944 17.5691ZM37.0194 14.7988C36.8745 15.1998 36.8021 15.6372 36.8021 16.111V17.5691H46.401V14.7988H37.0194ZM26.8409 14.7988H31.2962V17.5691H26.8409C26.9133 17.1317 26.9495 16.6578 26.9495 16.1839C26.9133 15.7101 26.9133 15.2362 26.8409 14.7988ZM21.1539 14.7988C21.3351 15.2362 21.4075 15.7101 21.4075 16.1839C21.4075 16.6578 21.2988 17.1317 21.1539 17.5691H1.37646C1.01423 17.5691 0.652005 17.4233 0.398447 17.1681C0.144889 16.9129 0 16.5484 0 16.1839C0 15.8194 0.144889 15.4549 0.398447 15.1998C0.652005 14.9446 1.01423 14.7988 1.37646 14.7988H21.1539Z" fill="#9FCB96"/>
<path fill-rule="evenodd" clip-rule="evenodd" d="M8.36746 17.5691H14.1268C14.6702 18.9906 16.0466 19.9748 17.6404 19.9748C19.7413 19.9748 21.4076 18.2616 21.4076 16.1839C21.4076 14.0698 19.7051 12.3931 17.6404 12.3931C16.0466 12.3931 14.6702 13.3773 14.1268 14.7988H8.36746V0.109347H13.8733V7.65457C15.0324 7.14426 16.3002 6.85266 17.6404 6.85266C22.7478 6.85266 26.9134 11.0444 26.9134 16.1839C26.9134 21.3234 22.784 25.4788 17.6766 25.5152H8.33124V17.5691H8.36746ZM46.4011 25.5152H51.9069V6.6704H46.4011V25.5152ZM118.52 16.1839C118.52 14.0698 120.223 12.3931 122.287 12.3931C123.881 12.3931 125.257 13.3773 125.801 14.7988H131.488C130.836 10.3154 126.96 6.85266 122.323 6.85266C120.983 6.85266 119.715 7.14426 118.556 7.65457V6.6704H113.014V25.5152H118.52V16.1839ZM36.7659 25.5152V16.0746C36.7659 13.9605 38.4684 12.2838 40.533 12.2838H43.286V6.74331H40.5693C39.229 6.74331 37.9613 7.03492 36.8021 7.54522V6.63396H31.2963V25.5152H36.7659ZM126.091 25.5152H131.596V17.5691H126.091V25.5152ZM73.5318 25.5152H64.2588C59.1514 25.5152 54.9858 21.3234 54.9858 16.1839C54.9858 11.0444 59.1514 6.85266 64.2588 6.85266C68.9315 6.85266 72.7711 10.3154 73.4231 14.7988H67.7724C67.229 13.3773 65.8526 12.3931 64.2588 12.3931C62.1579 12.3931 60.4917 14.1063 60.4917 16.1839C60.4917 18.2981 62.1941 19.9748 64.2588 19.9748C65.8526 19.9748 67.229 18.9542 67.7724 17.5691H73.5318V25.5152ZM83.1307 6.81621V0.0729051H77.6249V6.81621H75.6327V12.3567H77.6249V16.1475C77.6249 21.287 81.7905 25.4788 86.8979 25.4788H89.6508V19.9383H86.8979C84.797 19.9383 83.1307 18.2252 83.1307 16.1475V12.3567H86.8979V6.81621H83.1307ZM91.643 14.7988C92.295 10.3154 96.1708 6.85266 100.807 6.85266C105.915 6.85266 110.08 11.0444 110.08 16.1839C110.08 21.3234 105.915 25.5152 100.807 25.5152C96.1346 25.5152 92.295 22.0524 91.643 17.5691H97.2937C97.8371 18.9906 99.2135 19.9748 100.807 19.9748C102.908 19.9748 104.574 18.2616 104.574 16.1839C104.574 14.0698 102.872 12.3931 100.807 12.3931C99.2135 12.3931 97.8371 13.3773 97.2937 14.7988H91.643ZM49.154 0C50.6754 0 51.9069 1.23931 51.9069 2.77023C51.9069 4.30114 50.6754 5.54045 49.154 5.54045C47.6327 5.54045 46.4011 4.30114 46.4011 2.77023C46.4011 1.23931 47.6327 0 49.154 0Z" fill="black"/>
</svg>
