<svg width="24" height="24" viewBox="0 0 24 24" fill="none" xmlns="http://www.w3.org/2000/svg">
<path fill-rule="evenodd" clip-rule="evenodd" d="M8.75 7C8.75 5.20507 10.2051 3.75 12 3.75C13.7949 3.75 15.25 5.20507 15.25 7C15.25 8.79493 13.7949 10.25 12 10.25C10.2051 10.25 8.75 8.79493 8.75 7ZM12 2.25C9.37665 2.25 7.25 4.37665 7.25 7C7.25 9.62335 9.37665 11.75 12 11.75C14.6234 11.75 16.75 9.62335 16.75 7C16.75 4.37665 14.6234 2.25 12 2.25ZM5.75 18.3333C5.75 16.8886 6.88707 15.75 8.25 15.75H15.75C17.1129 15.75 18.25 16.8886 18.25 18.3333V19.25H5.75V18.3333ZM8.25 14.25C6.02307 14.25 4.25 16.0962 4.25 18.3333V20C4.25 20.4142 4.58579 20.75 5 20.75H19C19.4142 20.75 19.75 20.4142 19.75 20V18.3333C19.75 16.0962 17.9769 14.25 15.75 14.25H8.25Z" fill="black"/>
</svg>
