<svg width="34" height="22" viewBox="0 0 34 22" fill="none" xmlns="http://www.w3.org/2000/svg">
<path d="M21.5867 2.30005H12.3857V19.2029H21.5867V2.30005Z" fill="#FF5A00"/>
<path d="M12.9984 10.7513C12.9984 7.31714 14.5773 4.2692 17 2.29987C15.217 0.866366 12.9678 0 10.5144 0C4.70256 0 0 4.8085 0 10.7513C0 16.6941 4.70256 21.5026 10.5144 21.5026C12.9678 21.5026 15.217 20.6362 17 19.2027C14.5739 17.2612 12.9984 14.1854 12.9984 10.7513Z" fill="#EB001B"/>
<path d="M34 10.7513C34 16.6941 29.2974 21.5026 23.4856 21.5026C21.0322 21.5026 18.783 20.6362 17 19.2027C19.4534 17.2299 21.0016 14.1854 21.0016 10.7513C21.0016 7.31714 19.4227 4.2692 17 2.29987C18.7796 0.866366 21.0288 0 23.4822 0C29.2974 0 34 4.83982 34 10.7513Z" fill="#F79E1B"/>
</svg>
