<svg xmlns="http://www.w3.org/2000/svg">
    <symbol id="icon-logo" viewBox="0 0 140 26" fill="none" xmlns="http://www.w3.org/2000/svg">
        <path fill-rule="evenodd" clip-rule="evenodd" d="M118.81 14.7988C118.629 15.2362 118.556 15.7101 118.556 16.1839V17.5691H138.624C138.986 17.5691 139.348 17.4233 139.602 17.1681C139.855 16.9129 140 16.5484 140 16.1839C140 15.8194 139.855 15.4549 139.602 15.1998C139.348 14.9446 138.986 14.7988 138.624 14.7988H118.81ZM110.008 14.7988H113.014V17.5691H110.008C110.08 17.1317 110.116 16.6578 110.116 16.1839C110.116 15.7101 110.08 15.2362 110.008 14.7988ZM83.1307 14.7988H104.357C104.538 15.2362 104.611 15.7101 104.611 16.1839C104.611 16.6578 104.502 17.1317 104.357 17.5691H83.3842C83.2031 17.1317 83.1307 16.6578 83.1307 16.1839V14.7988ZM60.7452 14.7988H77.6248V16.1839C77.6248 16.6578 77.6611 17.1317 77.7335 17.5691H60.7814C60.6003 17.1317 60.5278 16.6578 60.5278 16.1839C60.4916 15.6736 60.564 15.1998 60.7452 14.7988ZM55.0944 17.5691H51.9069V14.7988H55.0944C55.022 15.2362 54.9858 15.7101 54.9858 16.1839C54.9858 16.6578 55.022 17.0952 55.0944 17.5691ZM37.0194 14.7988C36.8745 15.1998 36.8021 15.6372 36.8021 16.111V17.5691H46.401V14.7988H37.0194ZM26.8409 14.7988H31.2962V17.5691H26.8409C26.9133 17.1317 26.9495 16.6578 26.9495 16.1839C26.9133 15.7101 26.9133 15.2362 26.8409 14.7988ZM21.1539 14.7988C21.3351 15.2362 21.4075 15.7101 21.4075 16.1839C21.4075 16.6578 21.2988 17.1317 21.1539 17.5691H1.37646C1.01423 17.5691 0.652005 17.4233 0.398447 17.1681C0.144889 16.9129 0 16.5484 0 16.1839C0 15.8194 0.144889 15.4549 0.398447 15.1998C0.652005 14.9446 1.01423 14.7988 1.37646 14.7988H21.1539Z" fill="#9FCB96"/>
        <path fill-rule="evenodd" clip-rule="evenodd" d="M8.36746 17.5691H14.1268C14.6702 18.9906 16.0466 19.9748 17.6404 19.9748C19.7413 19.9748 21.4076 18.2616 21.4076 16.1839C21.4076 14.0698 19.7051 12.3931 17.6404 12.3931C16.0466 12.3931 14.6702 13.3773 14.1268 14.7988H8.36746V0.109347H13.8733V7.65457C15.0324 7.14426 16.3002 6.85266 17.6404 6.85266C22.7478 6.85266 26.9134 11.0444 26.9134 16.1839C26.9134 21.3234 22.784 25.4788 17.6766 25.5152H8.33124V17.5691H8.36746ZM46.4011 25.5152H51.9069V6.6704H46.4011V25.5152ZM118.52 16.1839C118.52 14.0698 120.223 12.3931 122.287 12.3931C123.881 12.3931 125.257 13.3773 125.801 14.7988H131.488C130.836 10.3154 126.96 6.85266 122.323 6.85266C120.983 6.85266 119.715 7.14426 118.556 7.65457V6.6704H113.014V25.5152H118.52V16.1839ZM36.7659 25.5152V16.0746C36.7659 13.9605 38.4684 12.2838 40.533 12.2838H43.286V6.74331H40.5693C39.229 6.74331 37.9613 7.03492 36.8021 7.54522V6.63396H31.2963V25.5152H36.7659ZM126.091 25.5152H131.596V17.5691H126.091V25.5152ZM73.5318 25.5152H64.2588C59.1514 25.5152 54.9858 21.3234 54.9858 16.1839C54.9858 11.0444 59.1514 6.85266 64.2588 6.85266C68.9315 6.85266 72.7711 10.3154 73.4231 14.7988H67.7724C67.229 13.3773 65.8526 12.3931 64.2588 12.3931C62.1579 12.3931 60.4917 14.1063 60.4917 16.1839C60.4917 18.2981 62.1941 19.9748 64.2588 19.9748C65.8526 19.9748 67.229 18.9542 67.7724 17.5691H73.5318V25.5152ZM83.1307 6.81621V0.0729051H77.6249V6.81621H75.6327V12.3567H77.6249V16.1475C77.6249 21.287 81.7905 25.4788 86.8979 25.4788H89.6508V19.9383H86.8979C84.797 19.9383 83.1307 18.2252 83.1307 16.1475V12.3567H86.8979V6.81621H83.1307ZM91.643 14.7988C92.295 10.3154 96.1708 6.85266 100.807 6.85266C105.915 6.85266 110.08 11.0444 110.08 16.1839C110.08 21.3234 105.915 25.5152 100.807 25.5152C96.1346 25.5152 92.295 22.0524 91.643 17.5691H97.2937C97.8371 18.9906 99.2135 19.9748 100.807 19.9748C102.908 19.9748 104.574 18.2616 104.574 16.1839C104.574 14.0698 102.872 12.3931 100.807 12.3931C99.2135 12.3931 97.8371 13.3773 97.2937 14.7988H91.643ZM49.154 0C50.6754 0 51.9069 1.23931 51.9069 2.77023C51.9069 4.30114 50.6754 5.54045 49.154 5.54045C47.6327 5.54045 46.4011 4.30114 46.4011 2.77023C46.4011 1.23931 47.6327 0 49.154 0Z" fill="black"/>
    </symbol>
    <symbol id="icon-menu" viewBox="0 0 24 24" fill="none" xmlns="http://www.w3.org/2000/svg">
        <path d="M4.12494 7.12524H19.8749" stroke="black" stroke-width="1.5" stroke-miterlimit="10" stroke-linecap="round"/>
        <path d="M4.12494 12.0002H13.8749" stroke="black" stroke-width="1.5" stroke-miterlimit="10" stroke-linecap="round"/>
        <path d="M4.12494 16.874H16.8749" stroke="black" stroke-width="1.5" stroke-miterlimit="10" stroke-linecap="round"/>
    </symbol>
    <symbol id="icon-location" viewBox="0 0 24 24" fill="none" xmlns="http://www.w3.org/2000/svg">
        <path d="M12 2C7.6 2 4 5.6 4 10C4 15.4 11 21.5 11.3 21.8C11.5 21.9 11.8 22 12 22C12.2 22 12.5 21.9 12.7 21.8C13 21.5 20 15.4 20 10C20 5.6 16.4 2 12 2ZM12 19.7C9.9 17.7 6 13.4 6 10C6 6.7 8.7 4 12 4C15.3 4 18 6.7 18 10C18 13.3 14.1 17.7 12 19.7ZM12 6C9.8 6 8 7.8 8 10C8 12.2 9.8 14 12 14C14.2 14 16 12.2 16 10C16 7.8 14.2 6 12 6ZM12 12C10.9 12 10 11.1 10 10C10 8.9 10.9 8 12 8C13.1 8 14 8.9 14 10C14 11.1 13.1 12 12 12Z" fill="#A5A5A5"/>
    </symbol>
    <symbol id="icon-arrow-bottom" viewBox="0 0 9 6" fill="none" xmlns="http://www.w3.org/2000/svg">
        <path fill-rule="evenodd" clip-rule="evenodd" d="M1.14645 1.14645C1.34171 0.951184 1.65829 0.951184 1.85355 1.14645L4.5 3.79289L7.14645 1.14645C7.34171 0.951184 7.65829 0.951184 7.85355 1.14645C8.04882 1.34171 8.04882 1.65829 7.85355 1.85355L4.85355 4.85355C4.65829 5.04882 4.34171 5.04882 4.14645 4.85355L1.14645 1.85355C0.951184 1.65829 0.951184 1.34171 1.14645 1.14645Z" fill="black" stroke="black" stroke-width="0.5" stroke-linecap="round" stroke-linejoin="round"/>
    </symbol>
    <symbol id="icon-basket" viewBox="0 0 24 24" fill="none" xmlns="http://www.w3.org/2000/svg">
        <path fill-rule="evenodd" clip-rule="evenodd" d="M9.75 6C9.75 4.75736 10.7574 3.75 12 3.75C13.2426 3.75 14.25 4.75736 14.25 6V6.25H9.75V6ZM8.25 7.75V9C8.25 9.41421 8.58579 9.75 9 9.75C9.41422 9.75 9.75 9.41421 9.75 9V7.75H14.25V9C14.25 9.41421 14.5858 9.75 15 9.75C15.4142 9.75 15.75 9.41421 15.75 9V7.75H17.3055L18.1901 19.25H5.80991L6.69453 7.75H8.25ZM8.25 6.25V6C8.25 3.92893 9.92893 2.25 12 2.25C14.0711 2.25 15.75 3.92893 15.75 6V6.25H18C18.3919 6.25 18.7177 6.55173 18.7478 6.94248L19.7478 19.9425C19.7638 20.1508 19.6922 20.3563 19.5503 20.5096C19.4084 20.6629 19.2089 20.75 19 20.75H5C4.79109 20.75 4.59165 20.6629 4.44971 20.5096C4.30777 20.3563 4.23619 20.1508 4.25221 19.9425L5.25221 6.94248C5.28227 6.55173 5.6081 6.25 6 6.25H8.25Z" fill="black"/>
    </symbol>
    <symbol id="icon-user" viewBox="0 0 24 24" fill="none" xmlns="http://www.w3.org/2000/svg">
        <path fill-rule="evenodd" clip-rule="evenodd" d="M8.75 7C8.75 5.20507 10.2051 3.75 12 3.75C13.7949 3.75 15.25 5.20507 15.25 7C15.25 8.79493 13.7949 10.25 12 10.25C10.2051 10.25 8.75 8.79493 8.75 7ZM12 2.25C9.37665 2.25 7.25 4.37665 7.25 7C7.25 9.62335 9.37665 11.75 12 11.75C14.6234 11.75 16.75 9.62335 16.75 7C16.75 4.37665 14.6234 2.25 12 2.25ZM5.75 18.3333C5.75 16.8886 6.88707 15.75 8.25 15.75H15.75C17.1129 15.75 18.25 16.8886 18.25 18.3333V19.25H5.75V18.3333ZM8.25 14.25C6.02307 14.25 4.25 16.0962 4.25 18.3333V20C4.25 20.4142 4.58579 20.75 5 20.75H19C19.4142 20.75 19.75 20.4142 19.75 20V18.3333C19.75 16.0962 17.9769 14.25 15.75 14.25H8.25Z" fill="black"/>
    </symbol>
    <symbol id="icon-logo-black" width="180" height="33" viewBox="0 0 180 33" fill="none" xmlns="http://www.w3.org/2000/svg">
        <path fill-rule="evenodd" clip-rule="evenodd" d="M152.755 19.0273C152.523 19.5897 152.429 20.199 152.429 20.8082V22.5891H178.23C178.696 22.5891 179.162 22.4016 179.488 22.0736C179.814 21.7455 180 21.2768 180 20.8082C180 20.3396 179.814 19.8709 179.488 19.5429C179.162 19.2148 178.696 19.0273 178.23 19.0273H152.755ZM141.439 19.0273H145.304V22.5891H141.439C141.532 22.0267 141.578 21.4174 141.578 20.8082C141.578 20.199 141.532 19.5897 141.439 19.0273ZM106.882 19.0273H134.173C134.406 19.5897 134.499 20.199 134.499 20.8082C134.499 21.4174 134.36 22.0267 134.173 22.5891H107.208C106.975 22.0267 106.882 21.4174 106.882 20.8082V19.0273ZM78.1009 19.0273H99.8034V20.8082C99.8034 21.4174 99.8499 22.0267 99.9431 22.5891H78.1475C77.9146 22.0267 77.8215 21.4174 77.8215 20.8082C77.7749 20.1521 77.868 19.5429 78.1009 19.0273ZM70.8357 22.5891H66.7374V19.0273H70.8357C70.7426 19.5897 70.696 20.199 70.696 20.8082C70.696 21.4174 70.7426 21.9798 70.8357 22.5891ZM47.5964 19.0273C47.4101 19.5429 47.3169 20.1052 47.3169 20.7145V22.5891H59.6585V19.0273H47.5964ZM34.5097 19.0273H40.238V22.5891H34.5097C34.6028 22.0267 34.6494 21.4174 34.6494 20.8082C34.6028 20.199 34.6028 19.5897 34.5097 19.0273ZM27.1979 19.0273C27.4308 19.5897 27.5239 20.199 27.5239 20.8082C27.5239 21.4174 27.3842 22.0267 27.1979 22.5891H1.76973C1.30401 22.5891 0.838292 22.4016 0.512289 22.0736C0.186286 21.7455 0 21.2768 0 20.8082C0 20.3396 0.186286 19.8709 0.512289 19.5429C0.838292 19.2148 1.30401 19.0273 1.76973 19.0273H27.1979Z" fill="#9FCB96"/>
        <path fill-rule="evenodd" clip-rule="evenodd" d="M10.7581 22.5888H18.163C18.8616 24.4165 20.6313 25.6819 22.6805 25.6819C25.3817 25.6819 27.524 23.4792 27.524 20.8079C27.524 18.0898 25.3351 15.934 22.6805 15.934C20.6313 15.934 18.8616 17.1993 18.163 19.0271H10.7581V0.140588H17.837V9.84159C19.3273 9.18548 20.9573 8.81056 22.6805 8.81056C29.2471 8.81056 34.6029 14.2 34.6029 20.8079C34.6029 27.4158 29.2937 32.7584 22.7271 32.8053H10.7115V22.5888H10.7581ZM59.6585 32.8053H66.7374V8.57623H59.6585V32.8053ZM152.383 20.8079C152.383 18.0898 154.572 15.934 157.226 15.934C159.276 15.934 161.045 17.1993 161.744 19.0271H169.056C168.217 13.2627 163.234 8.81056 157.273 8.81056C155.55 8.81056 153.92 9.18548 152.43 9.84159V8.57623H145.304V32.8053H152.383V20.8079ZM47.2704 32.8053V20.6673C47.2704 17.9492 49.4593 15.7934 52.1139 15.7934H55.6533V8.66997H52.1604C50.4373 8.66997 48.8073 9.04489 47.317 9.701V8.52938H40.2381V32.8053H47.2704ZM162.116 32.8053H169.195V22.5888H162.116V32.8053ZM94.5408 32.8053H82.6184C76.0518 32.8053 70.696 27.4158 70.696 20.8079C70.696 14.2 76.0518 8.81056 82.6184 8.81056C88.6262 8.81056 93.5628 13.2627 94.4011 19.0271H87.1359C86.4373 17.1993 84.6676 15.934 82.6184 15.934C79.9172 15.934 77.7749 18.1366 77.7749 20.8079C77.7749 23.5261 79.9638 25.6819 82.6184 25.6819C84.6676 25.6819 86.4373 24.3696 87.1359 22.5888H94.5408V32.8053ZM106.882 8.7637V0.0937351H99.8034V8.7637H97.2419V15.8871H99.8034V20.7611C99.8034 27.369 105.159 32.7584 111.726 32.7584H115.265V25.635H111.726C109.025 25.635 106.882 23.4323 106.882 20.7611V15.8871H111.726V8.7637H106.882ZM117.827 19.0271C118.665 13.2627 123.648 8.81056 129.609 8.81056C136.176 8.81056 141.532 14.2 141.532 20.8079C141.532 27.4158 136.176 32.8053 129.609 32.8053C123.602 32.8053 118.665 28.3531 117.827 22.5888H125.092C125.79 24.4165 127.56 25.6819 129.609 25.6819C132.311 25.6819 134.453 23.4792 134.453 20.8079C134.453 18.0898 132.264 15.934 129.609 15.934C127.56 15.934 125.79 17.1993 125.092 19.0271H117.827ZM63.198 0C65.154 0 66.7374 1.5934 66.7374 3.56172C66.7374 5.53004 65.154 7.12344 63.198 7.12344C61.242 7.12344 59.6585 5.53004 59.6585 3.56172C59.6585 1.5934 61.242 0 63.198 0Z" fill="white"/>
    </symbol>
    <symbol id="icon-visa" width="44" height="15" viewBox="0 0 44 15" fill="none" xmlns="http://www.w3.org/2000/svg">
        <g clip-path="url(#clip0_1_1277)">
            <path d="M19.0665 14.2977H15.5022L17.7316 0.745361H21.2957L19.0665 14.2977Z" fill="#00579F"/>
            <path d="M31.9876 1.07698C31.2846 0.802765 30.1695 0.5 28.7907 0.5C25.2708 0.5 22.7922 2.34533 22.777 4.9836C22.7477 6.93011 24.5516 8.01125 25.9008 8.66028C27.2798 9.32349 27.7485 9.75637 27.7485 10.3475C27.7345 11.2554 26.6342 11.6739 25.608 11.6739C24.185 11.6739 23.4225 11.4582 22.2638 10.9531L21.7944 10.7365L21.2957 13.7787C22.1316 14.1532 23.6718 14.4854 25.2708 14.5C29.0108 14.5 31.4456 12.6832 31.4744 9.87173C31.4887 8.32897 30.5361 7.14684 28.4826 6.18087C27.2359 5.56077 26.4725 5.14265 26.4725 4.50819C26.4871 3.9314 27.1182 3.34062 28.5254 3.34062C29.6842 3.31169 30.5355 3.58552 31.1805 3.85954L31.5029 4.00345L31.9876 1.07698V1.07698Z" fill="#00579F"/>
            <path d="M36.7248 9.49661C37.0183 8.71804 38.1478 5.70477 38.1478 5.70477C38.133 5.7337 38.4408 4.91183 38.6168 4.40728L38.8659 5.57504C38.8659 5.57504 39.5408 8.81903 39.6874 9.49661C39.1303 9.49661 37.4288 9.49661 36.7248 9.49661ZM41.1245 0.745361H38.3675C37.5173 0.745361 36.8713 0.990256 36.5045 1.86981L31.2102 14.2975H34.9501C34.9501 14.2975 35.5658 12.6249 35.6982 12.2646C36.1085 12.2646 39.7466 12.2646 40.2745 12.2646C40.3768 12.7404 40.6998 14.2975 40.6998 14.2975H44L41.1245 0.745361V0.745361Z" fill="#00579F"/>
            <path d="M12.5253 0.745361L9.03467 9.98678L8.65324 8.11251C8.00789 5.94985 5.98395 3.60017 3.72534 2.43184L6.92264 14.2834H10.6918L16.2943 0.745361H12.5253V0.745361Z" fill="#00579F"/>
            <path d="M5.79329 0.745361H0.0586675L0 1.01919C4.47337 2.14383 7.43599 4.85472 8.6532 8.11309L7.40656 1.88456C7.20132 1.019 6.57059 0.773913 5.79329 0.745361Z" fill="#FAA61A"/>
        </g>
        <defs>
            <clipPath id="clip0_1_1277">
                <rect width="44" height="14" fill="white" transform="translate(0 0.5)"/>
            </clipPath>
        </defs>
    </symbol>
    <symbol id="icon-mir" width="66" height="19" viewBox="0 0 66 19" fill="none" xmlns="http://www.w3.org/2000/svg">
        <g clip-path="url(#clip0_1_1290)">
            <path fill-rule="evenodd" clip-rule="evenodd" d="M17.7849 3.61491e-07V0.00829731C17.7768 0.00829731 15.2069 3.16503e-07 14.5216 2.49738C13.8934 4.78734 12.1231 11.1096 12.0742 11.2838H11.5847C11.5847 11.2838 9.77355 4.82052 9.13721 2.48908C8.45192 -0.00829666 5.87392 3.61491e-07 5.87392 3.61491e-07H0V19H5.87392V7.71616H6.11867H6.36341L9.78986 19H13.869L17.2954 7.72445H17.7849V19H23.6588V3.61491e-07H17.7849Z" fill="#4DB45E"/>
            <path fill-rule="evenodd" clip-rule="evenodd" d="M39.2409 0C39.2409 0 37.5195 0.157642 36.7118 1.99127L32.5512 11.2838H32.0617V0H26.1877V19H31.7353C31.7353 19 33.5383 18.8341 34.346 17.0087L38.4251 7.71616H38.9146V19H44.7885V0H39.2409Z" fill="#4DB45E"/>
            <path fill-rule="evenodd" clip-rule="evenodd" d="M47.3994 8.62891V19.0001H53.2733V12.9433H59.6367C62.4105 12.9433 64.7601 11.1429 65.633 8.62891H47.3994Z" fill="#4DB45E"/>
            <path fill-rule="evenodd" clip-rule="evenodd" d="M59.6365 0H46.5752C47.2279 3.61747 49.8956 6.5214 53.3465 7.46725C54.1297 7.68297 54.9537 7.79913 55.8021 7.79913H65.8694C65.9591 7.36769 65.9999 6.92795 65.9999 6.47162C65.9999 2.89563 63.1527 0 59.6365 0Z" fill="url(#paint0_linear_1_1290)"/>
        </g>
        <defs>
            <linearGradient id="paint0_linear_1_1290" x1="46.5768" y1="3.89956" x2="65.9999" y2="3.89956" gradientUnits="userSpaceOnUse">
                <stop offset="0.3" stop-color="#00B4E6"/>
                <stop offset="1" stop-color="#088CCB"/>
            </linearGradient>
            <clipPath id="clip0_1_1290">
                <rect width="66" height="19" fill="white"/>
            </clipPath>
        </defs>
    </symbol>
    <symbol id="icon-mc" width="34" height="22" viewBox="0 0 34 22" fill="none" xmlns="http://www.w3.org/2000/svg">
        <path d="M21.5867 2.30005H12.3857V19.2029H21.5867V2.30005Z" fill="#FF5A00"/>
        <path d="M12.9984 10.7513C12.9984 7.31714 14.5773 4.2692 17 2.29987C15.217 0.866366 12.9678 0 10.5144 0C4.70256 0 0 4.8085 0 10.7513C0 16.6941 4.70256 21.5026 10.5144 21.5026C12.9678 21.5026 15.217 20.6362 17 19.2027C14.5739 17.2612 12.9984 14.1854 12.9984 10.7513Z" fill="#EB001B"/>
        <path d="M34 10.7513C34 16.6941 29.2974 21.5026 23.4856 21.5026C21.0322 21.5026 18.783 20.6362 17 19.2027C19.4534 17.2299 21.0016 14.1854 21.0016 10.7513C21.0016 7.31714 19.4227 4.2692 17 2.29987C18.7796 0.866366 21.0288 0 23.4822 0C29.2974 0 34 4.83982 34 10.7513Z" fill="#F79E1B"/>
    </symbol>
    <symbol id="icon-affarts" width="62" height="18" viewBox="0 0 62 18" fill="none" xmlns="http://www.w3.org/2000/svg">
        <path fill-rule="evenodd" clip-rule="evenodd" d="M25.1663 15.4234C25.1663 14.0005 24.0128 12.8469 22.5897 12.8469C21.1667 12.8469 20.0132 14.0005 20.0132 15.4234C20.0132 16.8464 21.1667 18 22.5897 18C24.0128 18 25.1663 16.8464 25.1663 15.4234Z" fill="#F9564F"/>
        <path d="M18.0277 2.07961C16.9432 2.07961 16.401 2.66986 16.401 3.85036V4.50925H19.4278V6.56826H16.4628V15.422H13.889V3.80918C13.889 2.6424 14.2322 1.71585 14.9185 1.02951C15.6049 0.343169 16.5795 0 17.8423 0C18.8169 0 19.5856 0.199038 20.1484 0.597114L19.4278 2.53259C19.016 2.2306 18.5493 2.07961 18.0277 2.07961Z" fill="white"/>
        <path fill-rule="evenodd" clip-rule="evenodd" d="M11.654 15.422H9.2038V14.0013C8.77827 14.5229 8.24979 14.9141 7.61836 15.1749C7.00065 15.4358 6.31432 15.5662 5.55934 15.5662C4.48866 15.5662 3.52778 15.3328 2.67672 14.8661C1.83939 14.3994 1.1805 13.7405 0.700066 12.8894C0.233355 12.0384 0 11.0501 0 9.92446C0 8.79886 0.233355 7.8174 0.700066 6.98007C1.1805 6.12901 1.83939 5.47012 2.67672 5.00341C3.52778 4.5367 4.48866 4.30334 5.55934 4.30334C6.27314 4.30334 6.92516 4.42689 7.51541 4.67397C8.11939 4.92105 8.64101 5.28481 9.08026 5.76525V4.42689H11.654V15.422ZM5.84761 13.363C6.79475 13.363 7.57718 13.0473 8.19488 12.4159C8.81259 11.7844 9.12144 10.954 9.12144 9.92446C9.12144 8.89495 8.81259 8.06448 8.19488 7.43305C7.57718 6.80162 6.79475 6.4859 5.84761 6.4859C4.90046 6.4859 4.11803 6.80162 3.50033 7.43305C2.89635 8.06448 2.59436 8.89495 2.59436 9.92446C2.59436 10.954 2.89635 11.7844 3.50033 12.4159C4.11803 13.0473 4.90046 13.363 5.84761 13.363Z" fill="white"/>
        <path d="M22.5274 3.85036C22.5274 2.66986 23.0696 2.07961 24.154 2.07961C24.6756 2.07961 25.1424 2.2306 25.5542 2.53259L26.2748 0.597114C25.712 0.199038 24.9433 0 23.9687 0C22.7059 0 21.7313 0.343169 21.0449 1.02951C20.3586 1.71585 20.0154 2.6424 20.0154 3.80918V12.3142C20.714 11.7352 21.6109 11.3871 22.5892 11.387V6.56826H25.5542V4.50925H22.5274V3.85036Z" fill="white"/>
        <path fill-rule="evenodd" clip-rule="evenodd" d="M36.729 15.422H34.2788V14.0013C33.8532 14.5229 33.3247 14.9141 32.6933 15.1749C32.0756 15.4358 31.3893 15.5662 30.6343 15.5662C29.5636 15.5662 28.6027 15.3328 27.7517 14.8661C26.9143 14.3994 26.2555 13.7405 25.775 12.8894C25.3083 12.0384 25.075 11.0501 25.075 9.92446C25.075 8.79886 25.3083 7.8174 25.775 6.98007C26.2555 6.12901 26.9143 5.47012 27.7517 5.00341C28.6027 4.5367 29.5636 4.30334 30.6343 4.30334C31.3481 4.30334 32.0001 4.42689 32.5904 4.67397C33.1943 4.92105 33.716 5.28481 34.1552 5.76525V4.42689H36.729V15.422ZM30.9226 13.363C31.8697 13.363 32.6521 13.0473 33.2698 12.4159C33.8875 11.7844 34.1964 10.954 34.1964 9.92446C34.1964 8.89495 33.8875 8.06448 33.2698 7.43305C32.6521 6.80162 31.8697 6.4859 30.9226 6.4859C29.9754 6.4859 29.193 6.80162 28.5753 7.43305C27.9713 8.06448 27.6693 8.89495 27.6693 9.92446C27.6693 10.954 27.9713 11.7844 28.5753 12.4159C29.193 13.0473 29.9754 13.363 30.9226 13.363Z" fill="white"/>
        <path d="M45.3263 4.30334C43.4595 4.30334 42.1555 4.87987 41.4142 6.03292V4.42689H38.964V15.422H41.5378V10.0892C41.5378 8.99104 41.8192 8.15371 42.382 7.57718C42.9448 6.98693 43.7272 6.6918 44.7292 6.6918C44.9077 6.6918 45.1067 6.71239 45.3263 6.75357V4.30334Z" fill="white"/>
        <path d="M52.5543 14.8249C52.2523 15.072 51.8817 15.2573 51.4424 15.3809C51.0169 15.5044 50.5639 15.5662 50.0835 15.5662C48.8755 15.5662 47.9421 15.2504 47.2832 14.619C46.6243 13.9876 46.2949 13.0679 46.2949 11.8599V1.99725H48.8687V4.50925H51.8131V6.56826H48.8687V11.7982C48.8687 12.3335 48.9991 12.7453 49.2599 13.0336C49.5344 13.3081 49.9119 13.4454 50.3923 13.4454C50.9689 13.4454 51.4493 13.2944 51.8336 12.9924L52.3308 14.2565L53.2815 12.3747C53.7757 12.7041 54.366 12.9718 55.0523 13.1777C55.7524 13.3699 56.4387 13.466 57.1113 13.466C58.6487 13.466 59.4174 13.061 59.4174 12.2511C59.4174 11.8668 59.2184 11.5991 58.8203 11.4481C58.436 11.2971 57.8114 11.153 56.9466 11.0157C56.0406 10.8785 55.2994 10.7206 54.7229 10.5422C54.1601 10.3637 53.6659 10.0549 53.2404 9.61561C52.8286 9.16262 52.6227 8.53805 52.6227 7.7419C52.6227 6.69867 53.0551 5.8682 53.9198 5.25049C54.7984 4.61906 55.9789 4.30334 57.4613 4.30334C58.2163 4.30334 58.9713 4.39257 59.7263 4.57102C60.4812 4.73574 61.0989 4.96223 61.5794 5.25049L60.5911 7.20656C59.6576 6.65749 58.6075 6.38295 57.4408 6.38295C56.6858 6.38295 56.1093 6.49963 55.7112 6.73298C55.3268 6.95261 55.1347 7.24774 55.1347 7.61836C55.1347 8.03016 55.3406 8.32529 55.7524 8.50374C56.1779 8.66846 56.8299 8.82632 57.7084 8.97731C58.5869 9.11458 59.3076 9.27244 59.8704 9.45088C60.4332 9.62933 60.9136 9.93132 61.3117 10.3569C61.7235 10.7824 61.9294 11.3864 61.9294 12.1688C61.9294 13.1983 61.4833 14.0219 60.5911 14.6396C59.6988 15.2573 58.484 15.5662 56.9466 15.5662C56.0544 15.5662 55.1827 15.4495 54.3316 15.2161C53.5305 14.9965 52.8815 14.7221 52.3844 14.393L52.5543 14.8249Z" fill="white"/>
    </symbol>
    <symbol id="icon-close" width="25" height="24" viewBox="0 0 25 24" fill="none" xmlns="http://www.w3.org/2000/svg">
        <path d="M8.72803 16.2427L17.2133 7.75739" stroke="#292D32" stroke-linecap="round" stroke-linejoin="round"/>
        <path d="M17.2133 16.2426L8.72803 7.75732" stroke="#292D32" stroke-linecap="round" stroke-linejoin="round"/>
    </symbol>
    <symbol id="icon-filter" width="25" height="25" viewBox="0 0 25 25" fill="none" xmlns="http://www.w3.org/2000/svg">
        <path d="M15.001 16.5V19.624C15.001 20.198 14.611 20.698 14.054 20.837L11.554 21.462C10.765 21.659 10.001 21.063 10.001 20.249V14L4.79398 8.793C4.60598 8.605 4.50098 8.351 4.50098 8.086V5.5C4.50098 4.948 4.94898 4.5 5.50098 4.5H19.501C20.053 4.5 20.501 4.948 20.501 5.5V6.5" stroke="#A5A5A5" stroke-width="1.5" stroke-linecap="round" stroke-linejoin="round"/>
        <path d="M15.501 13.5L19.501 9.5" stroke="#A5A5A5" stroke-width="1.5" stroke-linecap="round" stroke-linejoin="round"/>
        <path d="M19.501 13.5L15.501 9.5" stroke="#A5A5A5" stroke-width="1.5" stroke-linecap="round" stroke-linejoin="round"/>
    </symbol>
    <symbol id="icon-check" width="9" height="7" viewBox="0 0 9 7" fill="none" xmlns="http://www.w3.org/2000/svg">
        <path d="M1.05273 4.2632L3.07379 5.94741L7.78958 0.894775" stroke="white" stroke-width="1.5" stroke-linecap="round" stroke-linejoin="round"/>
    </symbol>
    <symbol id="icon-i" width="5" height="10" viewBox="0 0 5 10" fill="none" xmlns="http://www.w3.org/2000/svg">
        <path d="M1.00879 4.24878H2.15927V8.50055" stroke="black" stroke-width="1.5" stroke-linecap="round" stroke-linejoin="round"/>
        <path d="M0.999756 8.50021H3.31006" stroke="black" stroke-width="1.5" stroke-linecap="round" stroke-linejoin="round"/>
        <path d="M2.10017 1.24435C2.10017 1.38248 1.98819 1.49445 1.85006 1.49445C1.71193 1.49445 1.59996 1.38248 1.59996 1.24435C1.59996 1.10622 1.71193 0.994245 1.85006 0.994245" stroke="black" stroke-width="1.5" stroke-linecap="round" stroke-linejoin="round"/>
        <path d="M1.8501 0.994141C1.98823 0.994141 2.1002 1.10612 2.1002 1.24424" stroke="black" stroke-width="1.5" stroke-linecap="round" stroke-linejoin="round"/>
    </symbol>
    <symbol id="icon-arrow-next" width="41" height="9" viewBox="0 0 41 9" fill="none" xmlns="http://www.w3.org/2000/svg">
        <path d="M40.3536 4.85355C40.5488 4.65829 40.5488 4.34171 40.3536 4.14644L37.1716 0.964463C36.9763 0.769201 36.6597 0.769201 36.4645 0.964463C36.2692 1.15973 36.2692 1.47631 36.4645 1.67157L39.2929 4.5L36.4645 7.32842C36.2692 7.52369 36.2692 7.84027 36.4645 8.03553C36.6597 8.23079 36.9763 8.23079 37.1716 8.03553L40.3536 4.85355ZM4.37114e-08 5L40 5L40 4L-4.37114e-08 4L4.37114e-08 5Z" fill="currentColor"/>
    </symbol>
    <symbol id="icon-arrow-prev" width="41" height="9" viewBox="0 0 41 9" fill="none" xmlns="http://www.w3.org/2000/svg">
        <path d="M0.646447 4.85355C0.451184 4.65829 0.451184 4.34171 0.646447 4.14644L3.82843 0.964463C4.02369 0.769201 4.34027 0.769201 4.53553 0.964463C4.7308 1.15973 4.7308 1.47631 4.53553 1.67157L1.70711 4.5L4.53553 7.32842C4.7308 7.52369 4.7308 7.84027 4.53553 8.03553C4.34027 8.23079 4.02369 8.23079 3.82843 8.03553L0.646447 4.85355ZM41 5L1 5L1 4L41 4L41 5Z" fill="currentColor"/>
    </symbol>
    <symbol id="icon-lamp" width="94" height="94" viewBox="0 0 94 94" fill="none" xmlns="http://www.w3.org/2000/svg">
        <g clip-path="url(#clip0_1_1143)">
            <path d="M31.6116 71.1695L23.4493 79.0638C22.7614 79.7295 22.743 80.8277 23.4087 81.5156C24.0743 82.2045 25.1725 82.2229 25.8605 81.5562L34.0228 73.661C34.7117 72.9953 34.7291 71.8971 34.0634 71.2092C33.3977 70.5213 32.2995 70.5029 31.6116 71.1686V71.1695Z" fill="#A5A5A5"/>
            <path d="M58.5099 73.8012C57.8219 73.1356 56.7238 73.154 56.0581 73.8419C55.3924 74.5308 55.4108 75.628 56.0987 76.2937L64.261 84.1889C64.9499 84.8546 66.0471 84.8372 66.7128 84.1483C67.3785 83.4603 67.3601 82.3622 66.6722 81.6965L58.5099 73.8012Z" fill="#A5A5A5"/>
            <path d="M45.5288 79.3667C44.5709 79.3667 43.7949 80.1427 43.7949 81.1006V92.2662C43.7949 93.2241 44.5709 94 45.5288 94C46.4867 94 47.2626 93.2241 47.2626 92.2662V81.1006C47.2626 80.1427 46.4867 79.3667 45.5288 79.3667Z" fill="#A5A5A5"/>
            <path d="M37.0054 57.4651C37.7649 62.1713 41.9641 65.6932 47.0147 65.6932C52.0654 65.6932 56.2646 62.1713 57.0241 57.4651H37.0054Z" fill="#A5A5A5"/>
            <path d="M55.1645 33.0159C54.4495 32.7789 53.9628 32.1171 53.9503 31.3653V25.4738C53.9773 24.1531 52.9285 23.0617 51.6078 23.0356C51.5904 23.0356 51.573 23.0356 51.5546 23.0356H48.7487V0H45.281V23.0356H42.0271C40.6851 23.0288 39.5908 24.1115 39.584 25.4535V31.5172C39.5811 32.2544 39.1167 32.9104 38.422 33.1581C29.2302 36.4188 22.8743 44.585 22.1689 53.9974H71.8617C71.1505 44.585 64.6011 36.1759 55.1645 33.0159Z" fill="#A5A5A5"/>
        </g>
        <defs>
            <clipPath id="clip0_1_1143">
                <rect width="94" height="94" fill="white"/>
            </clipPath>
        </defs>
    </symbol>




</svg>
